<svg width="20" height="30" viewBox="0 0 20 30" fill="none" xmlns="http://www.w3.org/2000/svg">
<path d="M16.4268 6.53155C17.6292 5.32912 17.6292 3.37961 16.4268 2.17718C15.2244 0.974757 13.2748 0.974757 12.0724 2.17718L2.17717 12.0724C0.974745 13.2749 0.974745 15.2244 2.17717 16.4268C3.37959 17.6292 5.32911 17.6292 6.53153 16.4268L16.4268 6.53155Z" fill="#00C2FF"/>
<path d="M17.6138 17.1116C18.8162 15.9091 18.8162 13.9596 17.6138 12.7572C16.4114 11.5548 14.4619 11.5548 13.2594 12.7572L3.36418 22.6525C2.16176 23.8549 2.16176 25.8044 3.36418 27.0068C4.56661 28.2092 6.51612 28.2092 7.71854 27.0068L17.6138 17.1116Z" fill="#00CC80"/>
</svg>
